<?xml version="1.0" encoding="iso-8859-1"?>
<!-- Generator: Adobe Illustrator 19.0.0, SVG Export Plug-In . SVG Version: 6.00 Build 0)  -->
<svg version="1.1" id="Capa_1" xmlns="http://www.w3.org/2000/svg" xmlns:xlink="http://www.w3.org/1999/xlink" x="0px" y="0px"
	 viewBox="0 0 512 512" style="enable-background:new 0 0 512 512;" xml:space="preserve">
<g>
	<g>
		<path d="M111.023,282.162l-47.09,67.29c-5.663,8.092-24.057,17.67-33.933,17.67H0v90h30c39.653,0,84.936-23.58,107.67-56.068
			l28.278-40.408L111.023,282.162z"/>
	</g>
</g>
<g>
	<g>
		<path d="M512,102.063L346.983,0v57.063h-10c-39.654,0-84.936,23.58-107.67,56.068l-26.749,38.222l54.924,78.484l45.563-65.104
			c5.663-8.092,24.057-17.67,33.933-17.67h10v57.063L512,102.063z"/>
	</g>
</g>
<g>
	<g>
		<path d="M512,409.937L346.983,307.873v57.064h-10c-9.876,0-28.27-9.578-33.933-17.67L137.67,110.946
			C114.936,78.458,69.653,54.878,30,54.878H0v90h30c9.876,0,28.27,9.578,33.933,17.67l165.381,236.32
			c22.734,32.488,68.016,56.068,107.67,56.068h10V512L512,409.937z"/>
	</g>
</g>
<g>
</g>
<g>
</g>
<g>
</g>
<g>
</g>
<g>
</g>
<g>
</g>
<g>
</g>
<g>
</g>
<g>
</g>
<g>
</g>
<g>
</g>
<g>
</g>
<g>
</g>
<g>
</g>
<g>
</g>
</svg>
